<svg id="visual" viewBox="0 0 900 600" width="900" height="600" xmlns="http://www.w3.org/2000/svg" xmlns:xlink="http://www.w3.org/1999/xlink" version="1.1"><rect x="0" y="0" width="900" height="600" fill="#001220"></rect><defs><linearGradient id="grad1_0" x1="33.3%" y1="0%" x2="100%" y2="100%"><stop offset="20%" stop-color="#001220" stop-opacity="1"></stop><stop offset="80%" stop-color="#001220" stop-opacity="1"></stop></linearGradient></defs><defs><linearGradient id="grad2_0" x1="0%" y1="0%" x2="66.7%" y2="100%"><stop offset="20%" stop-color="#001220" stop-opacity="1"></stop><stop offset="80%" stop-color="#001220" stop-opacity="1"></stop></linearGradient></defs><g transform="translate(900, 0)"><path d="M0 486.7C-72.9 488.8 -145.9 490.8 -186.3 449.7C-226.7 408.6 -234.6 324.4 -277.9 277.9C-321.2 231.4 -400 222.6 -440.7 182.5C-481.4 142.5 -484.1 71.3 -486.7 0L0 0Z" fill="#009473"></path></g><g transform="translate(0, 600)"><path d="M0 -486.7C65.9 -477.8 131.8 -468.9 181.4 -437.9C231 -406.9 264.3 -353.8 311.1 -311.1C357.9 -268.5 418.2 -236.4 449.7 -186.3C481.2 -136.2 484 -68.1 486.7 0L0 0Z" fill="#009473"></path></g></svg>